<?xml version="1.0" standalone="no"?><!DOCTYPE svg PUBLIC "-//W3C//DTD SVG 1.1//EN" "http://www.w3.org/Graphics/SVG/1.1/DTD/svg11.dtd"><svg t="1585107104404" class="icon" viewBox="0 0 1024 1024" version="1.1" xmlns="http://www.w3.org/2000/svg" p-id="2217" xmlns:xlink="http://www.w3.org/1999/xlink" width="40" height="40"><defs><style type="text/css"></style></defs><path d="M871.936 149.504h-143.36c0-34.304-28.672-57.344-71.168-57.344H373.76c-42.496 0-71.168 23.04-71.168 57.344H161.792c-42.496 0-71.168 23.04-71.168 57.344s28.672 56.832 71.168 56.832h710.656c42.496 0 71.168-23.04 71.168-57.344s-29.184-56.832-71.68-56.832zM157.696 837.632c0 62.976 64 114.688 141.824 114.688h428.032c77.824 0 141.824-51.712 141.824-114.688V323.072h-711.68v514.56zM583.68 493.568c0-34.304 31.232-57.344 73.728-57.344s72.704 23.04 72.704 57.344v286.72c0 34.304-29.696 58.88-72.704 58.88-42.496 0-73.728-24.576-73.728-58.88v-286.72z m-280.064 0c0-34.304 27.648-57.344 70.144-57.344s70.144 23.04 70.144 57.344v288.768c0 34.304-27.136 57.344-70.144 57.344s-70.144-23.04-70.144-57.344V493.568z" fill="#ffffff" p-id="2218"></path></svg>